<?xml version="1.0" encoding="utf-8"?>
<?xml-stylesheet type="text/xsl" href="rss1.xsl"?>
<rss version="2.0" xmlns:atom="http://www.w3.org/2005/Atom" xmlns:content="http://purl.org/rss/1.0/modules/content/" xmlns:dc="http://purl.org/dc/elements/1.1/" xmlns:media="http://search.yahoo.com/mrss/">
<channel>
 <title>Getty</title>
 <link>http://www.gettyimg.com/</link>
 <atom:link href="http://www.gettyimg.com/" rel="self" type="application/rss+xml" />

 
                <item>
                <title><![CDATA[【Requests】[REQ AUD] - Snow Angel - Renee Rapp (Dolby Atmos)]]></title>
                <link><![CDATA[https://sharemania.us/threads/snow-angel-renee-rapp-dolby-atmos.236812/]]></link>
                <description><![CDATA[<article>
<blockquote class="messageText SelectQuoteContainer ugc baseHtml">
Has anyone come across a download?
<div class="messageTextEndMarker">&nbsp;</div>
</blockquote>
</article>]]></description>
                <author><![CDATA[vinniecesarone]]></author>
                </item>

                
                <item>
                <title><![CDATA[【Cinema Center】SERIES - Dino Ranch - Season 2 - 1080p Disney+ WEB-DL DDP5.1 H.264-LAZY]]></title>
                <link><![CDATA[https://sharemania.us/threads/dino-ranch-season-2-1080p-disney-web-dl-ddp5-1-h-264-lazy.236810/]]></link>
                <description><![CDATA[<article>
<blockquote class="messageText SelectQuoteContainer ugc baseHtml">
Dino Ranch:<img src="http:////cdn2.broadcasthe.net/tvdb/banners/v4/series/395455/banners/62cbfbc1a047d.jpg" class="bbCodeImage LbImage" alt="[​IMG]" data-url="http:////cdn2.broadcasthe.net/tvdb/banners/v4/series/395455/banners/62cbfbc1a047d.jpg" style=""> <br>
<br>
<div class="bbCodeBlock bbCodeQuote">
<aside>
<blockquote class="quoteContainer"><div class="quote"><i><b>Synopsis:</b></i><br>
Dino Ranch follows the adventures of the Cassidy family as they tackle life in a fantastical "pre-westoric" setting where dinosaurs still roam. As the young ranchers learn the ropes, they discover the thrill of ranch life whilst navigating the great outdoors through unpredictable challenges.</div><div class="quoteExpand">Click to expand...</div></blockquote>
</aside>
</div>
<div class="ToggleTriggerAnchor bbCodeSpoilerContainer">
<button type="button" class="button bbCodeSpoilerButton ToggleTrigger Tooltip JsOnly" data-target="> .SpoilerTarget"><span>Spoiler: <span class="SpoilerTitle">MediaInfo</span></span></button>
<div class="SpoilerTarget bbCodeSpoilerText">General<br>
Unique ID : 338918375973921411181161493960304705119 (0xFEF94E0DDE81A67F17DC8D1E3EE93E5F)<br>
Complete name : Dino.Ranch.S02E01E02.Wranglin.Thunderfoot.-.Wings.Over.Dino.Ranch.1080p.DSNP.WEB-DL.DDP5.1.H.264-LAZY.mkv<br>
Format : Matroska<br>
Format version : Version 4<br>
File size : 1.17 GiB<br>
Duration : 23 min 49 s<br>
Overall bit rate mode : Variable<br>
Overall bit rate : 7 045 kb/s<br>
Frame rate : 23.976 FPS<br>
Encoded date : 2024-01-31 15:32:36 UTC<br>
Writing application : mkvmerge v82.0 ('I'm The President') 64-bit<br>
Writing library : libebml v1.4.5 + libmatroska v1.7.1<br>
<br>
Video<br>
ID : 1<br>
Format : AVC<br>
Format/Info : Advanced Video Codec<br>
Format profile : High@L4<br>
Format settings : CABAC / 4 Ref Frames<br>
Format settings, CABAC : Yes<br>
Format settings, Reference frames : 4 frames<br>
Codec ID : V_MPEG4/ISO/AVC<br>
Duration : 23 min 49 s<br>
Bit rate mode : Variable<br>
Bit rate : 6 787 kb/s<br>
Maximum bit rate : 12.7 Mb/s<br>
Width : 1 920 pixels<br>
Height : 1 080 pixels<br>
Display aspect ratio : 16:9<br>
Frame rate mode : Constant<br>
Frame rate : 23.976 (24000/1001) FPS<br>
Color space : YUV<br>
Chroma subsampling : 4:2:0<br>
Bit depth : 8 bits<br>
Scan type : Progressive<br>
Bits/(Pixel*Frame) : 0.137<br>
Stream size : 1.13 GiB (96%)<br>
Default : Yes<br>
Forced : No<br>
Color range : Limited<br>
Color primaries : BT.709<br>
Transfer characteristics : BT.709<br>
Matrix coefficients : BT.709<br>
<br>
Audio<br>
ID : 2<br>
Format : E-AC-3<br>
Format/Info : Enhanced AC-3<br>
Commercial name : Dolby Digital Plus<br>
Codec ID : A_EAC3<br>
Duration : 23 min 49 s<br>
Bit rate mode : Constant<br>
Bit rate : 256 kb/s<br>
Channel(s) : 6 channels<br>
Channel layout : L R C LFE Ls Rs<br>
Sampling rate : 48.0 kHz<br>
Frame rate : 31.250 FPS (1536 SPF)<br>
Compression mode : Lossy<br>
Stream size : 43.6 MiB (4%)<br>
Language : English<br>
Service kind : Complete Main<br>
Default : Yes<br>
Forced : No<br>
<br>
Text #1<br>
ID : 3<br>
Format : UTF-8<br>
Codec ID : S_TEXT/UTF8<br>
Codec ID/Info : UTF-8 Plain Text<br>
Duration : 23 min 19 s<br>
Bit rate : 76 b/s<br>
Frame rate : 0.336 FPS<br>
Count of elements : 471<br>
Stream size : 13.1 KiB (0%)<br>
Title : SDH<br>
Language : English<br>
Default : No<br>
Forced : No<br>
<br>
Text #2<br>
ID : 4<br>
Format : UTF-8<br>
Codec ID : S_TEXT/UTF8<br>
Codec ID/Info : UTF-8 Plain Text<br>
Duration : 23 min 15 s<br>
Bit rate : 66 b/s<br>
Frame rate : 0.284 FPS<br>
Count of elements : 396<br>
Stream size : 11.3 KiB (0%)<br>
Title : Latin American<br>
Language : Spanish<br>
Default : No<br>
Forced : No<br>
<br>
Text #3<br>
ID : 5<br>
Format : UTF-8<br>
Codec ID : S_TEXT/UTF8<br>
Codec ID/Info : UTF-8 Plain Text<br>
Duration : 23 min 15 s<br>
Bit rate : 70 b/s<br>
Frame rate : 0.267 FPS<br>
Count of elements : 372<br>
Stream size : 12.0 KiB (0%)<br>
Title : Brazilian<br>
Language : Portuguese<br>
Default : No<br>
Forced : No<br>
<br>
Menu<br>
00:00:01.043 : en:Intro<br>
00:00:46.046 : en:Scene 1<br>
00:12:02.764 : en:Scene 2<br>
00:23:18.941 : en:Credits</div>
</div><br>
Screenshots:<br>
<img src="https://i.imgur.com/ubKLKRz.jpeg" class="bbCodeImage LbImage" alt="[​IMG]" data-url="https://i.imgur.com/ubKLKRz.jpeg" style=""> <br>
<br>
<div class="bbCodeBlock bbCodeVfcHH HiddenContent">
<div class="attribution type">Hidden Content:</div>
<blockquote>You must either reply or click 'Like' to see the hidden information contained here.</blockquote>
</div>
<div class="messageTextEndMarker">&nbsp;</div>
</blockquote>
</article>]]></description>
                <author><![CDATA[LazyRips]]></author>
                </item>

                
                <item>
                <title><![CDATA[【Singles (lossless)】FLAC - POW - Valentine (2024) | Qobuz Hi-Res 24bit / 48kHz]]></title>
                <link><![CDATA[https://sharemania.us/threads/pow-valentine-2024-qobuz-hi-res-24bit-48khz.236811/]]></link>
                <description><![CDATA[<article>
<blockquote class="messageText SelectQuoteContainer ugc baseHtml">
<div style="text-align: center"><img src="https://a5.mzstatic.com/us/r1000/0/Music126/v4/54/38/6e/54386ea9-8043-b9ee-2d94-66349a777c29/191953331041.jpg" class="bbCodeImage LbImage" alt="[​IMG]" data-url="https://a5.mzstatic.com/us/r1000/0/Music126/v4/54/38/6e/54386ea9-8043-b9ee-2d94-66349a777c29/191953331041.jpg" style=""> <br>
<div class="bbCodeBlock bbCodeVfcHH HiddenContent">
<div class="attribution type">Hidden Content:</div>
<blockquote>You must either reply or click 'Like' to see the hidden information contained here.</blockquote>
</div></div>
<div class="messageTextEndMarker">&nbsp;</div>
</blockquote>
</article>]]></description>
                <author><![CDATA[2NE1]]></author>
                </item>

                </channel></rss>